<?xml version="1.0" encoding="UTF-8"?>
<svg version="1.1" xmlns="http://www.w3.org/2000/svg" width="300" height="302">
<path d="M0 0 C4.69427407 4.24720035 7.42254869 9.36954159 7.74525452 15.75421143 C7.74303391 16.63357361 7.74081329 17.51293579 7.73852539 18.41894531 C7.73841209 19.92004852 7.73841209 19.92004852 7.73829651 21.45147705 C7.73313522 22.52452087 7.72797394 23.5975647 7.72265625 24.703125 C7.7212413 25.80726746 7.71982635 26.91140991 7.71836853 28.04901123 C7.71277258 31.57436842 7.70022079 35.09966202 7.6875 38.625 C7.68248448 41.01562408 7.67792166 43.40624916 7.67382812 45.796875 C7.66280447 51.65627168 7.64607033 57.5156313 7.625 63.375 C8.41036133 62.57884277 9.19572266 61.78268555 10.00488281 60.96240234 C13.75122661 57.26283548 17.51558208 54.5997772 22.89453125 54.2109375 C28.34752461 54.60110057 32.2518419 56.11656847 36.625 59.375 C40.50136791 64.88352283 41.25710662 69.16224138 41.375 75.8125 C41.40464844 76.63943359 41.43429688 77.46636719 41.46484375 78.31835938 C41.5348451 80.33673177 41.58226701 82.35586623 41.625 84.375 C42.19605469 83.43398437 42.76710938 82.49296875 43.35546875 81.5234375 C46.47367166 77.19766892 49.61704168 75.87738749 54.625 74.375 C59.89484613 73.74976402 63.19302115 74.45177991 67.625 77.375 C71.33594962 80.88652943 74.37932469 84.09298089 74.625 89.375 C74.68161979 92.71042028 74.68328788 96.03963787 74.625 99.375 C75.346875 98.446875 76.06875 97.51875 76.8125 96.5625 C80.33467453 92.40260584 83.51925645 90.38290418 88.9375 89.5 C93.71550769 89.12634549 97.50537532 89.89243142 101.625 92.375 C106.38486326 96.48249621 108.39822892 101.49635448 108.88569641 107.68429565 C108.8903038 108.88402008 108.89491119 110.08374451 108.8996582 111.31982422 C108.90476913 111.9875032 108.90988007 112.65518219 108.91514587 113.34309387 C108.9289795 115.53871789 108.92808785 117.73402519 108.92578125 119.9296875 C108.9296756 121.4746207 108.93401178 123.01955285 108.93876648 124.56448364 C108.94621834 127.80409203 108.94594788 131.04359147 108.94067383 134.28320312 C108.93492357 138.38898626 108.95170637 142.49431171 108.9750185 146.60001945 C108.98993008 149.79526277 108.9906035 152.9904008 108.98750877 156.18567276 C108.98801473 157.696391 108.99311234 159.20711631 109.00332069 160.71780014 C109.13304801 182.62600727 104.55844247 201.58407055 89.4375 218.125 C76.07449326 230.56002016 58.68973533 237.80573581 40.5 237.6875 C39.58275146 237.68186035 38.66550293 237.6762207 37.72045898 237.67041016 C12.92006534 237.2327689 -5.94323727 226.17149441 -23.375 209.375 C-24.03242187 208.78074219 -24.68984375 208.18648437 -25.3671875 207.57421875 C-35.42738552 198.2326063 -41.92238909 185.31850102 -48.375 173.375 C-48.89755371 172.40804199 -49.42010742 171.44108398 -49.95849609 170.44482422 C-52.32812893 166.05413351 -54.69408953 161.66151473 -57.05224609 157.26464844 C-61.33381597 149.28371834 -65.67421502 141.33765983 -70.08740234 133.42871094 C-70.50844238 132.66977539 -70.92948242 131.91083984 -71.36328125 131.12890625 C-71.72977783 130.47220947 -72.09627441 129.8155127 -72.47387695 129.13891602 C-74.60384104 124.96958778 -74.84781097 120.95957781 -74.375 116.375 C-72.54586816 110.97906108 -70.41300108 106.21221014 -65.3984375 103.1796875 C-59.61866291 100.33945462 -54.64641571 99.01040784 -48.30859375 101.03515625 C-40.15751013 104.60802213 -36.38924964 111.16862841 -32.1875 118.6328125 C-31.81947266 119.28193604 -31.45144531 119.93105957 -31.07226562 120.59985352 C-30.17095663 122.19031273 -29.27267196 123.78248517 -28.375 125.375 C-28.37261165 124.78785154 -28.37022329 124.20070309 -28.36776257 123.59576225 C-28.30858389 109.29821415 -28.2330155 95.00082184 -28.13928509 80.70345879 C-28.09435113 73.78930054 -28.05493102 66.87519353 -28.02856445 59.9609375 C-28.00310595 53.28889217 -27.96218519 46.61710564 -27.91181374 39.94519424 C-27.89512268 37.39912883 -27.88362239 34.85302395 -27.87738609 32.30691147 C-27.86776972 28.74196178 -27.83973836 25.1775986 -27.80737305 21.61279297 C-27.80880814 20.55902969 -27.81024323 19.50526642 -27.8117218 18.41957092 C-27.73002088 12.06058169 -27.12377841 7.41715151 -22.69140625 2.51171875 C-22.11261719 2.03347656 -21.53382812 1.55523437 -20.9375 1.0625 C-20.07318359 0.32580078 -20.07318359 0.32580078 -19.19140625 -0.42578125 C-13.47159381 -4.20208753 -5.8425817 -2.81309489 0 0 Z " fill="#565469" transform="translate(133.375,57.625)"/>
<path d="M0 0 C14.26498543 11.63958028 23.8324288 26.42717033 27.02099609 44.68896484 C27.14735197 46.04124153 27.25019046 47.39585493 27.33349609 48.75146484 C27.41277344 49.92902344 27.41277344 49.92902344 27.49365234 51.13037109 C28.00399161 66.01896461 24.12433102 79.1541874 16.33349609 91.75146484 C15.34349609 92.41146484 14.35349609 93.07146484 13.33349609 93.75146484 C11.02349609 92.10146484 8.71349609 90.45146484 6.33349609 88.75146484 C6.76122177 83.47618156 8.79467103 79.31615983 11.07958984 74.63037109 C16.37175365 62.47982678 15.92786911 47.56661071 11.78662109 35.09912109 C5.42639466 20.44666396 -5.12882399 8.85424077 -20.12353516 2.75146484 C-34.12241279 -2.0773354 -48.95502269 -1.80724376 -62.66650391 3.75146484 C-63.37677734 4.00541016 -64.08705078 4.25935547 -64.81884766 4.52099609 C-77.65808578 9.85098656 -86.92701373 22.81987867 -92.04150391 35.18896484 C-96.61212876 47.25144001 -96.771108 63.36021221 -91.85400391 75.29443359 C-91.46212891 76.10525391 -91.07025391 76.91607422 -90.66650391 77.75146484 C-90.31587891 78.53134766 -89.96525391 79.31123047 -89.60400391 80.11474609 C-85.1576512 89.05376767 -77.81675575 96.08776491 -70.19775391 102.37646484 C-68.66650391 103.75146484 -68.66650391 103.75146484 -67.66650391 105.75146484 C-67.53234918 108.42382694 -67.6233185 111.07396973 -67.66650391 113.75146484 C-69.34619141 114.46240234 -69.34619141 114.46240234 -71.66650391 114.75146484 C-75.6646605 112.56716843 -79.12038613 109.59967646 -82.66650391 106.75146484 C-83.53275391 106.07599609 -84.39900391 105.40052734 -85.29150391 104.70458984 C-97.01304993 94.96105471 -104.96859341 80.75370013 -107.66650391 65.75146484 C-109.33958473 45.35130852 -105.2855492 27.69900114 -92.79150391 11.25146484 C-69.98869972 -15.07300794 -28.47280007 -21.3316583 0 0 Z " fill="#575266" transform="translate(163.66650390625,16.24853515625)"/>
<path d="M0 0 C1.36125 1.051875 1.36125 1.051875 2.75 2.125 C3.31203125 2.53234375 3.8740625 2.9396875 4.453125 3.359375 C12.00055947 9.20043298 16.73822472 17.7687666 18.234375 27.16796875 C19.26836819 39.40862341 17.67147122 48.96649641 10.6875 59.125 C9.7284375 60.115 9.7284375 60.115 8.75 61.125 C7.76 61.125 6.77 61.125 5.75 61.125 C5.78927612 59.61317139 5.78927612 59.61317139 5.8293457 58.07080078 C5.92068241 54.28766581 5.97754761 50.50462566 6.0246582 46.72070312 C6.04961442 45.09130397 6.08359254 43.46201458 6.12719727 41.83300781 C6.4230447 30.48638851 5.890294 22.34746116 -1.625 13.25 C-9.93290223 6.52455533 -17.89794351 5.33270075 -28.28515625 5.91162109 C-35.06208432 6.6475847 -39.83770645 10.22337136 -44.1875 15.25 C-49.15508204 22.33144674 -50.85071808 29.53026192 -49.578125 38.0234375 C-49.11146647 42.43447175 -49.16341245 46.81788996 -49.1875 51.25 C-49.19366333 52.5503418 -49.19366333 52.5503418 -49.19995117 53.87695312 C-49.21264555 55.95966355 -49.23075571 58.0423398 -49.25 60.125 C-50.57 60.125 -51.89 60.125 -53.25 60.125 C-60.33248412 52.95593294 -62.38267443 43.39275279 -62.6875 33.6875 C-62.41325277 21.85909777 -58.32295751 13.36983367 -50.1796875 4.99609375 C-36.05483277 -8.3659204 -16.62803817 -9.59309894 0 0 Z " fill="#565266" transform="translate(145.25,36.875)"/>
<path d="M0 0 C15.73593029 4.38542319 28.20428427 15.12916508 36.50390625 29.12109375 C45.43641104 46.30975179 47.73848416 65.37963757 42 84 C36.35791948 98.42805368 36.35791948 98.42805368 31 102 C28.69 100.35 26.38 98.7 24 97 C24.42772567 91.72471671 26.46117494 87.56469498 28.74609375 82.87890625 C31.62344968 76.27264045 32.36570966 70.16597496 32.625 63.0625 C32.66367188 62.18787109 32.70234375 61.31324219 32.7421875 60.41210938 C32.8356107 58.27505369 32.91885398 56.13755706 33 54 C33.99 54 34.98 54 36 54 C36.495 61.92 36.495 61.92 37 70 C37.66 69.67 38.32 69.34 39 69 C39.99 69.33 40.98 69.66 42 70 C41.88494258 67.16595415 41.75822275 64.33320381 41.625 61.5 C41.5940625 60.70851562 41.563125 59.91703125 41.53125 59.1015625 C41.00206569 48.34148154 38.08224421 37.33445761 32.0625 28.3125 C31.55847656 27.54550781 31.05445313 26.77851562 30.53515625 25.98828125 C28.98109882 23.7565843 28.98109882 23.7565843 26 22 C25.31594842 20.67550173 24.65066396 19.34121536 24 18 C19.76115065 12.72647089 15.83198633 10.62643897 9.125 9.75 C8.01382813 9.66234375 6.90265625 9.5746875 5.7578125 9.484375 C4.39269531 9.24460937 4.39269531 9.24460937 3 9 C2.34 8.01 1.68 7.02 1 6 C1.99 5.34 2.98 4.68 4 4 C2.68 2.68 1.36 1.36 0 0 Z " fill="#585468" transform="translate(146,8)"/>
<path d="M0 0 C1.02963867 -0.01836914 1.02963867 -0.01836914 2.08007812 -0.03710938 C6.81322725 -0.0505431 10.69220432 0.70082051 15.1875 2.1875 C13.1875 4.1875 13.1875 4.1875 10.0625 4.3125 C9.11375 4.27125 8.165 4.23 7.1875 4.1875 C7.1875 3.5275 7.1875 2.8675 7.1875 2.1875 C-8.79779942 3.49805313 -19.1050758 5.58700665 -30.25 17.875 C-31.72601717 20.05950541 -32.42912598 21.59972534 -32.8125 24.1875 C-33.4725 24.1875 -34.1325 24.1875 -34.8125 24.1875 C-34.4825 25.5075 -34.1525 26.8275 -33.8125 28.1875 C-33.1525 27.8575 -32.4925 27.5275 -31.8125 27.1875 C-30.8125 30.1875 -30.8125 30.1875 -30.8125 31.1875 C-30.1525 31.1875 -29.4925 31.1875 -28.8125 31.1875 C-28.8125 29.8675 -28.8125 28.5475 -28.8125 27.1875 C-27.8225 27.1875 -26.8325 27.1875 -25.8125 27.1875 C-25.96847656 27.79335938 -26.12445313 28.39921875 -26.28515625 29.0234375 C-27.52154632 34.34564639 -27.84304891 38.6621074 -27.10546875 44.05078125 C-26.42014182 51.38834829 -26.74446526 58.82462958 -26.8125 66.1875 C-28.1325 66.1875 -29.4525 66.1875 -30.8125 66.1875 C-37.89498412 59.01843294 -39.94517443 49.45525279 -40.25 39.75 C-39.97575277 27.92159777 -35.88545751 19.43233367 -27.7421875 11.05859375 C-19.47213289 3.23517972 -11.29182168 0.01042643 0 0 Z " fill="#595469" transform="translate(122.8125,30.8125)"/>
<path d="M0 0 C5.41567079 4.25516991 7.41102054 10.57629207 8.54296875 17.15625 C9.76436704 29.22653897 7.79832648 39.02061603 0.9375 49 C0.298125 49.66 -0.34125 50.32 -1 51 C-1.99 51 -2.98 51 -4 51 C-3.96072388 49.48817139 -3.96072388 49.48817139 -3.9206543 47.94580078 C-3.82931759 44.16266581 -3.77245239 40.37962566 -3.7253418 36.59570312 C-3.70038558 34.96630397 -3.66640746 33.33701458 -3.62280273 31.70800781 C-3.20275612 19.2690846 -3.20275612 19.2690846 -7.91723633 7.94091797 C-9 6 -9 6 -9 2 C-8.34 2 -7.68 2 -7 2 C-6.34 3.65 -5.68 5.3 -5 7 C-3.35 6.67 -1.7 6.34 0 6 C-0.2784375 4.7934375 -0.2784375 4.7934375 -0.5625 3.5625 C-0.706875 2.716875 -0.85125 1.87125 -1 1 C-0.67 0.67 -0.34 0.34 0 0 Z " fill="#575267" transform="translate(155,47)"/>
<path d="M0 0 C1.3761145 0.00193359 1.3761145 0.00193359 2.7800293 0.00390625 C9.39867909 0.09774621 15.41871534 0.87068308 21.625 3.3125 C21.625 3.9725 21.625 4.6325 21.625 5.3125 C20.68140625 5.168125 19.7378125 5.02375 18.765625 4.875 C2.76486904 2.56163769 -11.97571147 2.85396257 -27.375 8.3125 C-28.365 8.6425 -29.355 8.9725 -30.375 9.3125 C-30.375 9.9725 -30.375 10.6325 -30.375 11.3125 C-35.325 13.7875 -35.325 13.7875 -40.375 16.3125 C-40.045 16.9725 -39.715 17.6325 -39.375 18.3125 C-38.385 17.9825 -37.395 17.6525 -36.375 17.3125 C-35.385 17.3125 -34.395 17.3125 -33.375 17.3125 C-33.375 17.9725 -33.375 18.6325 -33.375 19.3125 C-31.725 18.9825 -30.075 18.6525 -28.375 18.3125 C-30.89543036 20.93794829 -33.54609947 23.32899974 -36.3125 25.6875 C-38.88942611 27.88882249 -40.97135171 29.9960903 -42.9375 32.75 C-45.375 35.3125 -45.375 35.3125 -49.1875 35.6875 C-50.7653125 35.501875 -50.7653125 35.501875 -52.375 35.3125 C-51.88 32.3425 -51.88 32.3425 -51.375 29.3125 C-56.40002274 34.63311231 -59.27425376 40.72741005 -62.375 47.3125 C-62.705 47.3125 -63.035 47.3125 -63.375 47.3125 C-62.10783606 34.85987661 -54.51210358 24.51470212 -45.375 16.3125 C-32.0013225 5.87902047 -17.0110589 -0.09945261 0 0 Z " fill="#595566" transform="translate(123.375,3.6875)"/>
<path d="M0 0 C15.73593029 4.38542319 28.20428427 15.12916508 36.50390625 29.12109375 C45.80678822 47.02246193 46.77959644 64.68163112 42 84 C40.85513303 87.17608255 39.55573272 89.99582648 38 93 C36.88671875 91.2109375 36.88671875 91.2109375 36 89 C37.8125 85.625 37.8125 85.625 38.95703125 83.9765625 C42.06061871 78.09485743 41.18356021 70.59413712 41.1875 64.125 C41.20586914 62.54912109 41.20586914 62.54912109 41.22460938 60.94140625 C41.24624536 49.41663803 38.53052338 38.00630603 32.0625 28.3125 C31.55847656 27.54550781 31.05445313 26.77851562 30.53515625 25.98828125 C28.98109882 23.7565843 28.98109882 23.7565843 26 22 C25.31594842 20.67550173 24.65066396 19.34121536 24 18 C19.76115065 12.72647089 15.83198633 10.62643897 9.125 9.75 C8.01382813 9.66234375 6.90265625 9.5746875 5.7578125 9.484375 C4.39269531 9.24460937 4.39269531 9.24460937 3 9 C2.34 8.01 1.68 7.02 1 6 C1.99 5.34 2.98 4.68 4 4 C2.68 2.68 1.36 1.36 0 0 Z " fill="#756D7B" transform="translate(146,8)"/>
<path d="M0 0 C0.33 0.66 0.66 1.32 1 2 C0.53094238 3.00442139 0.06188477 4.00884277 -0.42138672 5.04370117 C-2.43183787 9.49022406 -2.36375624 13.48588681 -2.2578125 18.30078125 C-2.25083344 19.22248611 -2.24385437 20.14419098 -2.23666382 21.09382629 C-2.22046919 23.10714668 -2.19771417 25.12042251 -2.16918945 27.13360596 C-2.09228895 32.66566265 -2.06725805 38.19798316 -2.0390625 43.73046875 C-2.03203308 44.9222876 -2.02500366 46.11410645 -2.01776123 47.34204102 C-1.94958921 62.52233868 -2.21005333 77.69839059 -2.46266937 92.87612534 C-2.50010636 95.13140756 -2.53681681 97.3867005 -2.57330322 99.64199829 C-2.71023328 108.09475892 -2.85206594 116.54742372 -3 125 C-3.99 125.495 -3.99 125.495 -5 126 C-5.66 125.67 -6.32 125.34 -7 125 C-6.67 123.68 -6.34 122.36 -6 121 C-5.67 121.33 -5.34 121.66 -5 122 C-4.99761165 121.41285154 -4.99522329 120.82570309 -4.99276257 120.22076225 C-4.93358389 105.92321415 -4.8580155 91.62582184 -4.76428509 77.32845879 C-4.71935113 70.41430054 -4.67993102 63.50019353 -4.65356445 56.5859375 C-4.62810595 49.91389217 -4.58718519 43.24210564 -4.53681374 36.57019424 C-4.52012268 34.02412883 -4.50862239 31.47802395 -4.50238609 28.93191147 C-4.49276972 25.36696178 -4.46473836 21.8025986 -4.43237305 18.23779297 C-4.43380814 17.18402969 -4.43524323 16.13026642 -4.4367218 15.04457092 C-4.36461234 9.43210884 -4.24809758 4.24809758 0 0 Z " fill="#676270" transform="translate(110,61)"/>
<path d="M0 0 C1.02963867 -0.01836914 1.02963867 -0.01836914 2.08007812 -0.03710938 C6.81322725 -0.0505431 10.69220432 0.70082051 15.1875 2.1875 C13.1875 4.1875 13.1875 4.1875 10.0625 4.3125 C9.11375 4.27125 8.165 4.23 7.1875 4.1875 C7.1875 3.5275 7.1875 2.8675 7.1875 2.1875 C-8.79779942 3.49805313 -19.1050758 5.58700665 -30.25 17.875 C-31.72601717 20.05950541 -32.42912598 21.59972534 -32.8125 24.1875 C-33.4725 24.1875 -34.1325 24.1875 -34.8125 24.1875 C-36.05468734 30.22098136 -36.9380787 35.88078705 -36.875 42.0625 C-36.86597656 43.21492188 -36.85695313 44.36734375 -36.84765625 45.5546875 C-36.83605469 46.42351562 -36.82445313 47.29234375 -36.8125 48.1875 C-37.8025 47.8575 -38.7925 47.5275 -39.8125 47.1875 C-40.40425348 35.00724077 -39.60284806 24.92641207 -31.5703125 15.09765625 C-22.44668024 5.18330919 -13.55650372 0.01251755 0 0 Z " fill="#706A78" transform="translate(122.8125,30.8125)"/>
<path d="M0 0 C0 0.66 0 1.32 0 2 C-0.94359375 1.855625 -1.8871875 1.71125 -2.859375 1.5625 C-18.86013096 -0.75086231 -33.60071147 -0.45853743 -49 5 C-49.99 5.33 -50.98 5.66 -52 6 C-52 6.66 -52 7.32 -52 8 C-52.68707031 8.32613281 -53.37414062 8.65226563 -54.08203125 8.98828125 C-55.43361328 9.64376953 -55.43361328 9.64376953 -56.8125 10.3125 C-57.70582031 10.74175781 -58.59914063 11.17101563 -59.51953125 11.61328125 C-61.80285976 12.88978774 -63.19764854 14.1543488 -65 16 C-65.66 16 -66.32 16 -67 16 C-67 16.66 -67 17.32 -67 18 C-68.65 18.66 -70.3 19.32 -72 20 C-67.62671726 9.59619053 -53.82389184 4.16007852 -44 0 C-30.96400047 -5.1489615 -13.04057327 -5.13071735 0 0 Z " fill="#716B79" transform="translate(145,7)"/>
<path d="M0 0 C4.28133304 1.34577308 6.18609797 3.02013447 8.8125 6.625 C9.71935547 7.85089844 9.71935547 7.85089844 10.64453125 9.1015625 C11.09183594 9.72804688 11.53914063 10.35453125 12 11 C11.01 12.485 11.01 12.485 10 14 C12.94729537 15.15811388 12.94729537 15.15811388 16 15 C16 15.66 16 16.32 16 17 C16.66 17.33 17.32 17.66 18 18 C17.01 19.32 16.02 20.64 15 22 C11.5881759 20.46428335 8.85527045 18.45745601 5.9375 16.125 C5.08027344 15.44695312 4.22304687 14.76890625 3.33984375 14.0703125 C1.16135025 12.142764 -0.51267086 10.49535288 -2 8 C-1.56363636 1.56363636 -1.56363636 1.56363636 0 0 Z " fill="#595467" transform="translate(74,106)"/>
<path d="M0 0 C0.66 0 1.32 0 2 0 C2 15.18 2 30.36 2 46 C1.34 46 0.68 46 0 46 C-0.82015379 40.99030195 -1.14767469 36.13467236 -1.1328125 31.0546875 C-1.13376923 30.32178497 -1.13472595 29.58888245 -1.13571167 28.83377075 C-1.13638774 27.2959179 -1.13457375 25.7580621 -1.13037109 24.22021484 C-1.1249991 21.8746092 -1.1303435 19.52919365 -1.13671875 17.18359375 C-1.13605817 15.68229125 -1.13477742 14.18098886 -1.1328125 12.6796875 C-1.13483673 11.98374481 -1.13686096 11.28780212 -1.13894653 10.57077026 C-1.12145926 6.92185281 -0.86382933 3.5488202 0 0 Z " fill="#594F60" transform="translate(240,179)"/>
<path d="M0 0 C0.91058531 3.07322544 1.08886184 5.80097361 1 9 C0.34 9 -0.32 9 -1 9 C0.32 9.66 1.64 10.32 3 11 C2.67 11.99 2.34 12.98 2 14 C-0.31 14 -2.62 14 -5 14 C-4.67 12.02 -4.34 10.04 -4 8 C-9.02502274 13.32061231 -11.89925376 19.41491005 -15 26 C-15.33 26 -15.66 26 -16 26 C-15.49589044 20.75991382 -14.27920675 16.9825549 -11.75 12.375 C-10.87601562 10.74691406 -10.87601562 10.74691406 -9.984375 9.0859375 C-7.28671211 4.89075309 -4.81138599 1.60379533 0 0 Z " fill="#5D586D" transform="translate(76,25)"/>
<path d="M0 0 C2 3 2 3 2.3125 5.5 C2.539375 6.325 2.76625 7.15 3 8 C3.83273438 8.38800781 4.66546875 8.77601562 5.5234375 9.17578125 C6.74933594 10.07876953 6.74933594 10.07876953 8 11 C8.38060051 13.78599571 8.47962905 15.93372751 8.3125 18.6875 C8.27866211 19.7403418 8.27866211 19.7403418 8.24414062 20.81445312 C8.18531647 22.5438833 8.09563389 24.27221438 8 26 C6.68 26 5.36 26 4 26 C3.34 26.66 2.68 27.32 2 28 C1.67 22.06 1.34 16.12 1 10 C0.34 10 -0.32 10 -1 10 C-1.125 2.25 -1.125 2.25 0 0 Z " fill="#555066" transform="translate(180,52)"/>
<path d="M0 0 C0.33 0 0.66 0 1 0 C1.6680417 12.82640073 1.29643434 25.4289552 -5.66796875 36.69921875 C-7.33402418 39.13385877 -7.33402418 39.13385877 -7 43 C-5.35 43.66 -3.7 44.32 -2 45 C-2 44.01 -2 43.02 -2 42 C-1.01 41.505 -1.01 41.505 0 41 C0.66 40.01 1.32 39.02 2 38 C2.33 38.66 2.66 39.32 3 40 C1.35 42.31 -0.3 44.62 -2 47 C-8.71945701 43.70135747 -8.71945701 43.70135747 -9.8984375 40.75390625 C-10.0345873 37.06215203 -8.85141212 34.90606325 -7.1875 31.625 C-3.39470738 24.0754508 -1.73293579 17.48367115 -1.4375 9.125 C-1.12304178 1.12304178 -1.12304178 1.12304178 0 0 Z " fill="#726C7B" transform="translate(180,63)"/>
<path d="M0 0 C0.66 0 1.32 0 2 0 C1.67 1.98 1.34 3.96 1 6 C1.99 5.67 2.98 5.34 4 5 C4.99 5.33 5.98 5.66 7 6 C7 6.66 7 7.32 7 8 C5.35 8.33 3.7 8.66 2 9 C2 9.99 2 10.98 2 12 C1.34 12 0.68 12 0 12 C0.33 13.32 0.66 14.64 1 16 C0.01 16.33 -0.98 16.66 -2 17 C-2.66 16.67 -3.32 16.34 -4 16 C-4.33 16.99 -4.66 17.98 -5 19 C-5.99 18.34 -6.98 17.68 -8 17 C-7.41974158 13.31633699 -6.41183904 10.54472757 -4.5625 7.3125 C-4.13066406 6.54550781 -3.69882813 5.77851562 -3.25390625 4.98828125 C-2 3 -2 3 0 1 C0 0.67 0 0.34 0 0 Z " fill="#565164" transform="translate(70,33)"/>
<path d="M0 0 C0.45375 0.495 0.9075 0.99 1.375 1.5 C2.179375 2.2425 2.179375 2.2425 3 3 C5.00390388 2.69100108 7.00308288 2.35133048 9 2 C11.89647735 1.82826935 14.78651214 1.81500301 17.6875 1.8125 C18.44611328 1.80025391 19.20472656 1.78800781 19.98632812 1.77539062 C23.85591651 1.76514458 25.70692722 1.80461815 29 4 C25.81116318 6.12589121 25.013359 6.24878896 21.359375 6.23046875 C20.45316406 6.22853516 19.54695313 6.22660156 18.61328125 6.22460938 C17.66839844 6.21236328 16.72351563 6.20011719 15.75 6.1875 C14.82058594 6.18685547 13.89117187 6.18621094 12.93359375 6.18554688 C7.8747536 6.15334775 2.95926315 6.04894723 -2 5 C-3.4375 2.9375 -3.4375 2.9375 -4 1 C-2.1875 0.3125 -2.1875 0.3125 0 0 Z " fill="#504C5D" transform="translate(158,289)"/>
<path d="M0 0 C5.41567079 4.25516991 7.41102054 10.57629207 8.54296875 17.15625 C9.30819243 24.71846048 9.89417675 33.76619193 5.421875 40.30859375 C4.95265625 40.86675781 4.4834375 41.42492187 4 42 C4.14520465 40.3749437 4.29120869 38.74995883 4.4375 37.125 C4.52644531 36.11824219 4.61539063 35.11148438 4.70703125 34.07421875 C4.88769692 32.17843367 5.08905637 30.28433013 5.32421875 28.39453125 C6.05391653 22.43375329 5.82227853 16.94570627 5 11 C4.34 11 3.68 11 3 11 C1.68 7.7 0.36 4.4 -1 1 C-0.67 0.67 -0.34 0.34 0 0 Z " fill="#6B6673" transform="translate(155,47)"/>
<path d="M0 0 C0.99 0 1.98 0 3 0 C2.84402344 0.60585938 2.68804687 1.21171875 2.52734375 1.8359375 C1.29095368 7.15814639 0.96945109 11.4746074 1.70703125 16.86328125 C2.39235818 24.20084829 2.06803474 31.63712958 2 39 C1.34 38.67 0.68 38.34 0 38 C-0.37890625 35.05078125 -0.37890625 35.05078125 -0.5625 31.3125 C-0.74303709 27.82334436 -0.92194531 24.44677572 -1.5234375 21.00390625 C-2.0788006 17.50329786 -2.09591937 14.16745308 -2.0625 10.625 C-2.05347656 9.37976563 -2.04445313 8.13453125 -2.03515625 6.8515625 C-2.02355469 5.91054688 -2.01195313 4.96953125 -2 4 C-1.34 4 -0.68 4 0 4 C0 2.68 0 1.36 0 0 Z " fill="#6E6877" transform="translate(94,58)"/>
<path d="M0 0 C0.99 0.33 1.98 0.66 3 1 C2.99214478 2.08099976 2.99214478 2.08099976 2.98413086 3.18383789 C2.96323125 6.47671625 2.95029869 9.76958059 2.9375 13.0625 C2.92912109 14.19623047 2.92074219 15.32996094 2.91210938 16.49804688 C2.89575153 22.10878867 2.98187903 27.47649331 4 33 C2.68 33 1.36 33 0 33 C-0.9991932 29.89139894 -0.83036989 28.11388708 0 25 C-0.33 24.34 -0.66 23.68 -1 23 C-1.09833936 20.52994663 -1.13903081 18.09442339 -1.125 15.625 C-1.12886719 14.95210937 -1.13273437 14.27921875 -1.13671875 13.5859375 C-1.1300858 10.21640113 -0.89895914 7.23910674 0 4 C0 2.68 0 1.36 0 0 Z " fill="#67626F" transform="translate(66,56)"/>
<path d="M0 0 C1.99954746 -0.04254356 4.00041636 -0.04080783 6 0 C6.33 0.33 6.66 0.66 7 1 C9.05396726 0.59070014 9.05396726 0.59070014 11 0 C11 0.66 11 1.32 11 2 C12.32 2.33 13.64 2.66 15 3 C15.33 2.34 15.66 1.68 16 1 C16.33 3.64 16.66 6.28 17 9 C15.25 10.125 15.25 10.125 13 11 C10.75 10.125 10.75 10.125 9 9 C9 7.68 9 6.36 9 5 C8.1028125 5.309375 8.1028125 5.309375 7.1875 5.625 C5 6 5 6 2 4 C2 3.01 2 2.02 2 1 C1.34 0.67 0.68 0.34 0 0 Z " fill="#555064" transform="translate(139,44)"/>
<path d="M0 0 C5.81261371 1.73982995 10.83169994 3.8110489 16 7 C15.67 7.99 15.34 8.98 15 10 C10.20291909 10.19188324 6.43866361 9.9022844 2 8 C1.67 7.34 1.34 6.68 1 6 C1.99 5.34 2.98 4.68 4 4 C2.68 2.68 1.36 1.36 0 0 Z " fill="#595568" transform="translate(146,8)"/>
<path d="M0 0 C0.66 0.33 1.32 0.66 2 1 C1.67 8.26 1.34 15.52 1 23 C3.51083114 21.74458443 3.87125446 20.49936512 5 18 C5.75 19.6875 5.75 19.6875 6 22 C4.25 24.75 4.25 24.75 2 27 C1.01 27 0.02 27 -1 27 C-1.02932572 23.81251971 -1.04690739 20.62507472 -1.0625 17.4375 C-1.07087891 16.54224609 -1.07925781 15.64699219 -1.08789062 14.72460938 C-1.10629571 9.70002057 -0.86266398 4.95182709 0 0 Z " fill="#6C6874" transform="translate(152,71)"/>
<path d="M0 0 C4.54158149 1.28522761 7.70558363 2.97882644 11.375 5.9375 C12.68597656 6.97197266 12.68597656 6.97197266 14.0234375 8.02734375 C15.00183594 9.00380859 15.00183594 9.00380859 16 10 C16 10.99 16 11.98 16 13 C15.2575 12.62875 14.515 12.2575 13.75 11.875 C11.05716353 10.70484137 11.05716353 10.70484137 8.6875 11.875 C7.8521875 12.431875 7.8521875 12.431875 7 13 C6.01 12.34 5.02 11.68 4 11 C5 8 5 8 6 7 C6 6.34 6 5.68 6 5 C5.34 5 4.68 5 4 5 C4 4.34 4 3.68 4 3 C2.68 2.67 1.36 2.34 0 2 C0 1.34 0 0.68 0 0 Z " fill="#615B6C" transform="translate(138,34)"/>
<path d="M0 0 C2.32590854 3.63423209 2.16265833 6.77088331 2 11 C1.67 11 1.34 11 1 11 C0.67 24.2 0.34 37.4 0 51 C-0.33 51 -0.66 51 -1 51 C-1.02526787 43.89755001 -1.04283201 36.79511152 -1.05493164 29.69262695 C-1.05997349 27.27432828 -1.06680678 24.85603267 -1.07543945 22.43774414 C-1.08751157 18.97020717 -1.09322963 15.50271034 -1.09765625 12.03515625 C-1.10281754 10.94662857 -1.10797882 9.85810089 -1.11329651 8.73658752 C-1.11337204 7.73562546 -1.11344757 6.73466339 -1.11352539 5.70336914 C-1.115746 4.81734512 -1.11796661 3.93132111 -1.12025452 3.01844788 C-1 1 -1 1 0 0 Z " fill="#5E5B6D" transform="translate(139,67)"/>
<path d="M0 0 C0.66 0 1.32 0 2 0 C3.19140625 1.65234375 3.19140625 1.65234375 4.5625 3.9375 C8.04662814 9.36010139 12.34822944 13.57910776 17 18 C18.02438403 19.01727025 19.0460075 20.03734421 20.0625 21.0625 C20.701875 21.701875 21.34125 22.34125 22 23 C18.65750371 22.40312566 16.53563658 21.26396123 14 19 C14 18.34 14 17.68 14 17 C13.01 16.67 12.02 16.34 11 16 C9.29115995 14.37660195 7.62553283 12.70680947 6 11 C5.484375 10.54625 4.96875 10.0925 4.4375 9.625 C2.14195465 7.03003569 0.66041243 4.03454686 -1 1 C-0.67 0.67 -0.34 0.34 0 0 Z " fill="#6B6776" transform="translate(73,98)"/>
<path d="M0 0 C0.66 0 1.32 0 2 0 C2 0.66 2 1.32 2 2 C2.66 2.33 3.32 2.66 4 3 C4 3.33 4 3.66 4 4 C4.66 4.33 5.32 4.66 6 5 C6 6.32 6 7.64 6 9 C6.66 9.66 7.32 10.32 8 11 C7.625 13.125 7.625 13.125 7 15 C5.33333333 13.33333333 3.66666667 11.66666667 2 10 C1.21625 9.34 0.4325 8.68 -0.375 8 C-2 6 -2 6 -1.8125 3.3125 C-1 1 -1 1 0 0 Z " fill="#5A5568" transform="translate(162,23)"/>
<path d="M0 0 C0.66 0 1.32 0 2 0 C2.25394531 0.845625 2.50789063 1.69125 2.76953125 2.5625 C4.66087119 8.79612976 6.63911816 14.92916098 9 21 C9.33 21.99 9.66 22.98 10 24 C7 23 7 23 5.68359375 20.7421875 C-0.40766986 6.72655273 -0.40766986 6.72655273 0 0 Z " fill="#646170" transform="translate(57,81)"/>
<path d="M0 0 C0.66 0.33 1.32 0.66 2 1 C1.01979403 3.85893407 0.05542997 5.9325602 -1.875 8.28125 C-4.13071986 11.16724452 -5.65758248 14.01909103 -7.25 17.3125 C-7.77078125 18.38113281 -8.2915625 19.44976562 -8.828125 20.55078125 C-9.40820312 21.76314453 -9.40820312 21.76314453 -10 23 C-10.33 23 -10.66 23 -11 23 C-10.50051526 17.68116248 -9.21700376 13.90904473 -6.625 9.25 C-6.01914063 8.14140625 -5.41328125 7.0328125 -4.7890625 5.890625 C-3.32794083 3.52986074 -2.07294405 1.80587764 0 0 Z " fill="#6B6574" transform="translate(71,28)"/>
<path d="M0 0 C0.33 0 0.66 0 1 0 C2.20795249 6.58191434 2.11243329 13.07430261 2.0625 19.75 C2.05798828 20.88566406 2.05347656 22.02132812 2.04882812 23.19140625 C2.04013111 25.28614357 2.02937569 27.38087411 2.01586914 29.47558594 C2.00429334 31.31702851 2 33.15852105 2 35 C1.37400383 36.68236471 0.71247732 38.3523962 0 40 C-0.33 40 -0.66 40 -1 40 C-0.67 26.8 -0.34 13.6 0 0 Z " fill="#524C5E" transform="translate(108,144)"/>
<path d="M0 0 C0 0.66 0 1.32 0 2 C-0.99 2 -1.98 2 -3 2 C-3.33 2.99 -3.66 3.98 -4 5 C-5.77734375 6.60546875 -5.77734375 6.60546875 -7.9375 8.1875 C-8.64777344 8.71730469 -9.35804687 9.24710938 -10.08984375 9.79296875 C-12 11 -12 11 -14 11 C-14 11.66 -14 12.32 -14 13 C-15.65 13.66 -17.3 14.32 -19 15 C-17.49701757 11.2467422 -15.34954916 9.39792505 -12.1875 6.9375 C-10.90939453 5.93009766 -10.90939453 5.93009766 -9.60546875 4.90234375 C-2.89117043 0 -2.89117043 0 0 0 Z " fill="#797281" transform="translate(92,12)"/>
<path d="M0 0 C0.66 0 1.32 0 2 0 C2.66 1.65 3.32 3.3 4 5 C4.99 5 5.98 5 7 5 C7.33 9.95 7.66 14.9 8 20 C6 19 6 19 5.2890625 16.92578125 C5.06992188 16.06339844 4.85078125 15.20101562 4.625 14.3125 C3.70297269 10.98559733 2.79276669 8.35193313 0.75 5.5625 C0.1725 4.716875 -0.405 3.87125 -1 3 C-0.67 2.01 -0.34 1.02 0 0 Z " fill="#5F5A6A" transform="translate(146,49)"/>
<path d="M0 0 C0.33 0 0.66 0 1 0 C0.50856181 7.53538564 -2.42339466 14.72054109 -7.8125 20.125 C-8.534375 20.74375 -9.25625 21.3625 -10 22 C-10 19 -10 19 -8.0625 16.625 C-5.94167723 13.92577102 -5.38322263 12.35319799 -5 9 C-4.34 9 -3.68 9 -3 9 C-3 7.68 -3 6.36 -3 5 C-2.34 5 -1.68 5 -1 5 C-0.67 3.35 -0.34 1.7 0 0 Z " fill="#67626E" transform="translate(237,247)"/>
<path d="M0 0 C0 0.33 0 0.66 0 1 C-6.6 1.33 -13.2 1.66 -20 2 C-19 0 -19 0 -16.4375 -1.125 C-10.645968 -2.59920815 -5.48726559 -2.7436328 0 0 Z " fill="#676474" transform="translate(88,160)"/>
<path d="M0 0 C2.90331312 1.30148519 4.94171968 2.56344113 7 5 C7.80078125 7.19140625 7.80078125 7.19140625 8.3125 9.5625 C8.49425781 10.34753906 8.67601562 11.13257813 8.86328125 11.94140625 C8.90839844 12.62074219 8.95351562 13.30007812 9 14 C8.34 14.66 7.68 15.32 7 16 C6.74605469 15.32453125 6.49210938 14.6490625 6.23046875 13.953125 C5.88628906 13.06109375 5.54210937 12.1690625 5.1875 11.25 C4.85105469 10.36828125 4.51460937 9.4865625 4.16796875 8.578125 C3.03112171 6.06869674 1.6558864 4.18254368 0 2 C0 1.34 0 0.68 0 0 Z " fill="#665F6E" transform="translate(169,38)"/>
<path d="M0 0 C0.99 0 1.98 0 3 0 C3 0.66 3 1.32 3 2 C3.66 2 4.32 2 5 2 C5.19335938 2.61488281 5.38671875 3.22976562 5.5859375 3.86328125 C5.84632812 4.67152344 6.10671875 5.47976562 6.375 6.3125 C6.63023438 7.11300781 6.88546875 7.91351563 7.1484375 8.73828125 C7.98831811 11.22724528 7.98831811 11.22724528 10 14 C9.625 16.1875 9.625 16.1875 9 18 C7.49667622 15.18926431 5.99790265 12.37612794 4.5 9.5625 C4.07074219 8.76005859 3.64148438 7.95761719 3.19921875 7.13085938 C2.79316406 6.36708984 2.38710937 5.60332031 1.96875 4.81640625 C1.59169922 4.10943604 1.21464844 3.40246582 0.82617188 2.67407227 C0 1 0 1 0 0 Z " fill="#787281" transform="translate(77,215)"/>
<path d="M0 0 C2 3 2 3 2 7 C4.475 7.99 4.475 7.99 7 9 C7 8.01 7 7.02 7 6 C7.66 5.67 8.32 5.34 9 5 C9.66 4.01 10.32 3.02 11 2 C11.33 2.66 11.66 3.32 12 4 C10.35 6.31 8.7 8.62 7 11 C0.26411076 7.69329073 0.26411076 7.69329073 -1 4.375 C-1 2 -1 2 0 0 Z " fill="#6D6175" transform="translate(171,99)"/>
<path d="M0 0 C10.09117362 3.09990301 10.09117362 3.09990301 14 6 C14 6.66 14 7.32 14 8 C10.0397381 7.43726296 7.47032673 6.26476935 4.1875 4 C3.39730469 3.46375 2.60710937 2.9275 1.79296875 2.375 C1.20128906 1.92125 0.60960937 1.4675 0 1 C0 0.67 0 0.34 0 0 Z " fill="#726D7A" transform="translate(146,8)"/>
<path d="M0 0 C0.66 0.33 1.32 0.66 2 1 C1.2116391 2.77230751 0.41918653 4.54279534 -0.375 6.3125 C-0.81585938 7.29863281 -1.25671875 8.28476562 -1.7109375 9.30078125 C-3 12 -3 12 -5 15 C-6.23595506 10.5505618 -6.23595506 10.5505618 -5.0625 7.8125 C-4.711875 7.214375 -4.36125 6.61625 -4 6 C-4 5.34 -4 4.68 -4 4 C-3.34 4 -2.68 4 -2 4 C-2 3.01 -2 2.02 -2 1 C-1.34 0.67 -0.68 0.34 0 0 Z " fill="#66606E" transform="translate(74,41)"/>
<path d="M0 0 C3.96 0.33 7.92 0.66 12 1 C11.67 1.66 11.34 2.32 11 3 C9.989375 2.938125 8.97875 2.87625 7.9375 2.8125 C3.44500628 3.02642827 0.98914039 4.04613532 -3 6 C-3 5.01 -3 4.02 -3 3 C-2.01 2.67 -1.02 2.34 0 2 C0 1.34 0 0.68 0 0 Z " fill="#534D60" transform="translate(150,114)"/>
<path d="M0 0 C0.33 0 0.66 0 1 0 C1.33 5.28 1.66 10.56 2 16 C-2 14 -2 14 -3 11 C-2.34 11 -1.68 11 -1 11 C-1.33 9.35 -1.66 7.7 -2 6 C-1.34 6 -0.68 6 0 6 C0 4.02 0 2.04 0 0 Z " fill="#635D6E" transform="translate(93,82)"/>
<path d="M0 0 C0 0.66 0 1.32 0 2 C-7.26 1.67 -14.52 1.34 -22 1 C-22 0.67 -22 0.34 -22 0 C-19.08365878 -0.19502282 -16.16720455 -0.38129328 -13.25 -0.5625 C-12.0125 -0.64661133 -12.0125 -0.64661133 -10.75 -0.73242188 C-9.95078125 -0.78076172 -9.1515625 -0.82910156 -8.328125 -0.87890625 C-7.5949707 -0.9260376 -6.86181641 -0.97316895 -6.10644531 -1.02172852 C-3.91642774 -0.99913793 -2.09512813 -0.61487456 0 0 Z " fill="#645B6C" transform="translate(136,14)"/>
<path d="M0 0 C0.66 0 1.32 0 2 0 C3.49821059 3.37097383 4 5.20442119 4 9 C3.01 9.33 2.02 9.66 1 10 C-1.125 3.375 -1.125 3.375 0 0 Z " fill="#524A5F" transform="translate(204,149)"/>
<path d="M0 0 C0.80824219 0.10183594 1.61648437 0.20367187 2.44921875 0.30859375 C3.06410156 0.39238281 3.67898437 0.47617188 4.3125 0.5625 C0.63903229 3.01147847 -1.35106399 2.87787716 -5.6875 2.5625 C-6.3475 1.9025 -7.0075 1.2425 -7.6875 0.5625 C-4.59271121 -0.46909626 -3.16118607 -0.41232862 0 0 Z " fill="#66606C" transform="translate(158.6875,112.4375)"/>
<path d="M0 0 C0.33 0.99 0.66 1.98 1 3 C-2.96 3 -6.92 3 -11 3 C-4.75 -0.125 -4.75 -0.125 0 0 Z " fill="#615E70" transform="translate(128,39)"/>
<path d="M0 0 C0.99 0.33 1.98 0.66 3 1 C3 1.66 3 2.32 3 3 C4.65 3 6.3 3 8 3 C8 3.66 8 4.32 8 5 C2.375 5.25 2.375 5.25 -1 3 C-0.67 2.01 -0.34 1.02 0 0 Z " fill="#54505E" transform="translate(141,285)"/>
<path d="M0 0 C4.43458973 1.3937282 6.87378374 3.60582235 10 7 C9.67 7.99 9.34 8.98 9 10 C5.73991357 6.83047153 2.77762123 3.60062011 0 0 Z " fill="#676272" transform="translate(160,28)"/>
<path d="M0 0 C0.33 0.66 0.66 1.32 1 2 C2.65 1.67 4.3 1.34 6 1 C3.63707344 3.52588702 2.33537489 4.88820837 -1 6 C-1.66 4.68 -2.32 3.36 -3 2 C-2.01 1.34 -1.02 0.68 0 0 Z " fill="#615D6A" transform="translate(89,21)"/>
<path d="M0 0 C3.73884332 2.65654657 5.64978174 4.58110387 7 9 C6.01 9 5.02 9 4 9 C3.34 7.02 2.68 5.04 2 3 C1.34 3 0.68 3 0 3 C0 2.01 0 1.02 0 0 Z " fill="#625D6B" transform="translate(234,150)"/>
<path d="M0 0 C0.66 0 1.32 0 2 0 C1.5205537 4.21912747 0.83374881 6.79663178 -2 10 C-2.6875 8.375 -2.6875 8.375 -3 6 C-1.5625 2.75 -1.5625 2.75 0 0 Z " fill="#6D6976" transform="translate(185,91)"/>
<path d="M0 0 C0.66 0 1.32 0 2 0 C2 2.64 2 5.28 2 8 C1.01 7.67 0.02 7.34 -1 7 C-0.67 4.69 -0.34 2.38 0 0 Z " fill="#656070" transform="translate(58,53)"/>
<path d="M0 0 C0.66 0.66 1.32 1.32 2 2 C-3.2734375 5.22265625 -3.2734375 5.22265625 -5 6 C-5.66 5.67 -6.32 5.34 -7 5 C-4.78065836 1.67098753 -3.65316671 1.24976756 0 0 Z " fill="#534D5E" transform="translate(209,281)"/>
<path d="M0 0 C0.99 0 1.98 0 3 0 C3 0.66 3 1.32 3 2 C3.66 2 4.32 2 5 2 C5 3.65 5 5.3 5 7 C4.34 7 3.68 7 3 7 C2.01 4.69 1.02 2.38 0 0 Z " fill="#6C6475" transform="translate(77,215)"/>
<path d="M0 0 C0.66 0 1.32 0 2 0 C2 2.64 2 5.28 2 8 C1.01 8 0.02 8 -1 8 C-0.67 5.36 -0.34 2.72 0 0 Z " fill="#6D6676" transform="translate(94,122)"/>
<path d="M0 0 C6.625 -0.25 6.625 -0.25 10 2 C5.94568308 3.15837626 3.78187881 2.83691257 0 1 C0 0.67 0 0.34 0 0 Z " fill="#6D6877" transform="translate(188,132)"/>
<path d="M0 0 C0.99 0.33 1.98 0.66 3 1 C3 2.32 3 3.64 3 5 C2.01 5.33 1.02 5.66 0 6 C-0.66 5.01 -1.32 4.02 -2 3 C-1.34 2.01 -0.68 1.02 0 0 Z " fill="#656077" transform="translate(140,122)"/>
<path d="M0 0 C0.99 0.99 1.98 1.98 3 3 C2.01 4.485 2.01 4.485 1 6 C0.01 5.67 -0.98 5.34 -2 5 C-1.34 3.35 -0.68 1.7 0 0 Z " fill="#524E61" transform="translate(138,118)"/>
<path d="M0 0 C2.09350689 3.4019487 2.17942163 6.05272412 2 10 C0.4375 8.9375 0.4375 8.9375 -1 7 C-0.6875 3.3125 -0.6875 3.3125 0 0 Z " fill="#6D6772" transform="translate(188,53)"/>
<path d="M0 0 C0.66 0.33 1.32 0.66 2 1 C0.7260411 3.03833424 -0.61061923 5.03852126 -2 7 C-2.66 7 -3.32 7 -4 7 C-2.92598892 4.08482708 -2.22189824 2.22189824 0 0 Z " fill="#777081" transform="translate(71,28)"/>
<path d="M0 0 C3 1 3 1 5 2 C4.67 3.32 4.34 4.64 4 6 C2.02 4.68 0.04 3.36 -2 2 C-1.34 1.34 -0.68 0.68 0 0 Z " fill="#635D69" transform="translate(153,21)"/>
</svg>
